<svg width="16" height="11" viewBox="0 0 16 11" fill="none" xmlns="http://www.w3.org/2000/svg">
<path fill-rule="evenodd" clip-rule="evenodd" d="M8.0025 4.50268C7.45335 4.50268 7.00406 4.95385 7.00406 5.50528C7.00406 6.0567 7.45335 6.50787 8.0025 6.50787C8.55164 6.50787 9.00094 6.0567 9.00094 5.50528C9.00094 4.95385 8.55164 4.50268 8.0025 4.50268ZM15.99 5.4752C15.99 5.46517 15.99 5.46517 15.99 5.45515V5.44512C15.99 5.43509 15.99 5.43509 15.99 5.42507C15.99 5.41504 15.99 5.41504 15.99 5.40502C15.97 5.26465 15.9101 5.14434 15.8203 5.04408C15.3111 4.37234 14.702 3.78081 14.083 3.23941C12.7551 2.06637 11.2374 1.08383 9.56006 0.692819C8.58159 0.452197 7.6131 0.442171 6.63463 0.632664C5.74602 0.813131 4.89735 1.17407 4.08861 1.62523C2.84056 2.33708 1.69236 3.30959 0.693916 4.40242C0.514197 4.61297 0.334477 4.81349 0.164743 5.03406C-0.0549142 5.32481 -0.0549142 5.67572 0.164743 5.96647C0.673947 6.63821 1.283 7.22974 1.90203 7.77114C3.22995 8.94418 4.74758 9.92672 6.42496 10.3177C7.39345 10.5483 8.37192 10.5584 9.35039 10.3578C10.239 10.1774 11.0877 9.81644 11.8964 9.36527C13.1445 8.65343 14.2927 7.68091 15.2911 6.58808C15.4708 6.38756 15.6605 6.17702 15.8303 5.95644C15.9201 5.85618 15.98 5.72585 16 5.59551C16 5.58548 16 5.58548 16 5.57546C16 5.56543 16 5.56543 16 5.55541V5.54538C16 5.53535 16 5.53535 16 5.52533C16 5.5153 16 5.50528 16 5.49525C16 5.48522 15.99 5.48522 15.99 5.4752ZM8.0025 8.51306C6.34509 8.51306 5.00718 7.16958 5.00718 5.50528C5.00718 3.84097 6.34509 2.49749 8.0025 2.49749C9.65991 2.49749 10.9978 3.84097 10.9978 5.50528C10.9978 7.16958 9.65991 8.51306 8.0025 8.51306Z" fill="#8F95B2"/>
</svg>
